<svg xmlns="http://www.w3.org/2000/svg" viewBox="0 0 128 128">
  <path fill="#439934" d="M88.038 42.812c1.605 4.643 2.761 9.383 3.141 14.296.472 6.095.256 12.147-1.029 18.142-.035.165-.109.32-.164.48-.403.001-.814-.049-1.208.012-3.329.523-6.655 1.065-9.981 1.604-3.438.557-6.881 1.092-10.313 1.687-1.216.21-2.721-.041-3.212 1.641-.014.046-.154.054-.235.08l.166-10.051c-.057-8.084-.113-16.168-.169-24.252l1.602-.275c2.62-.429 5.24-.864 7.862-1.281 3.129-.497 6.261-.98 9.392-1.479.468-.073.934-.167 1.399-.268l.749-.336z"/>
  <path fill="#45A538" d="M61.729 110.054c-1.69-1.453-3.439-2.842-5.059-4.37-8.717-8.222-15.093-17.899-18.233-29.566-.865-3.211-1.442-6.474-1.627-9.792-.13-2.322-.318-4.665-.154-6.975.437-6.144 1.325-12.229 3.127-18.147l.099-.138c.175.233.427.439.516.702 1.759 5.18 3.505 10.364 5.242 15.551 5.458 16.3 10.909 32.604 16.376 48.899.107.318.384.579.583.866l-.87 2.97z"/>
  <path fill="#46A037" d="M88.038 42.812c-1.384.451-2.61.559-3.837.039-2.656-.113-5.292-.66-7.938-.914-2.263-.218-4.618.014-6.835-.395-5.411-.997-10.843-.12-16.27-.895l2.14 66.52c5.623-15.078 10.785-30.25 16.017-45.404 1.226-3.542 2.459-7.08 3.684-10.623.175-.505.421-.982.63-1.477l12.409 2.149z"/>
  <path fill="#409433" d="M65.036 80.753c.081-.026.222-.034.235-.08.491-1.682 1.996-1.431 3.212-1.641 3.432-.595 6.875-1.13 10.313-1.687 3.326-.539 6.652-1.081 9.981-1.604.394-.061.805-.011 1.208-.012-.622 5.301-2.274 10.392-4.621 15.185-2.696 5.507-6.677 10.041-12.461 12.62-.236.105-.48.186-.717.288-.105-.729-.211-1.457-.315-2.185-.017-.121-.095-.234-.14-.355-1.832-4.33-3.659-8.663-5.491-12.994-.091-.215-.18-.432-.275-.646.069-.002.138-.013.071.111z"/>
  <path fill="#4FAA41" d="M64.965 80.642c-.067-.124.002-.113-.071-.111.095.214.184.431.275.646 1.832 4.331 3.659 8.664 5.491 12.994.045.121.123.234.14.355.104.728.21 1.456.315 2.185.237-.102.481-.183.717-.288 5.784-2.579 9.765-7.113 12.461-12.62 2.347-4.793 3.999-9.884 4.621-15.185.055-.16.129-.315.164-.48 1.285-5.995 1.501-12.047 1.029-18.142-.38-4.913-1.536-9.653-3.141-14.296l-12.409-2.149c-.209.495-.455.972-.63 1.477-1.225 3.543-2.458 7.081-3.684 10.623-5.232 15.154-10.394 30.326-16.017 45.404l2.14-66.52c5.427.775 10.859-.102 16.27.895 2.217.409 4.572.177 6.835.395 2.646.254 5.282.801 7.938.914 1.227.52 2.453.412 3.837-.039l-.749.336c-.465.101-.931.195-1.399.268-3.131.499-6.263.982-9.392 1.479-2.622.417-5.242.852-7.862 1.281l-1.602.275c.056 8.084.112 16.168.169 24.252l-.166 10.051z"/>
</svg>
