<svg xmlns="http://www.w3.org/2000/svg" viewBox="0 0 128 128">
  <path fill="#83CD29" d="M112.678 30.334L68.535 4.729c-2.781-1.584-6.424-1.584-9.227 0L14.82 30.334C11.951 31.985 10 35.088 10 38.407v51.142c0 3.319 1.951 6.449 4.82 8.073l11.631 6.732c6.503 3.251 8.72 3.251 11.695 3.251 9.584 0 15.085-5.848 15.085-15.943V43.845c0-.613-.492-1.133-1.105-1.133H45.16c-.613 0-1.104.52-1.104 1.133v47.817c0 3.896-4.062 7.794-10.566 4.569L22.107 89.47c-.613-.373-1.104-1.133-1.104-1.816V38.407c0-.683.491-1.443 1.104-1.816L66.569 11.002c.613-.373 1.548-.373 2.161 0l44.462 25.589c.613.373 1.104 1.133 1.104 1.816v49.247c0 .683-.491 1.443-1.104 1.816L68.73 114.998c-.613.373-1.548.373-2.161 0L54.152 108.319c-.613-.373-1.548-.373-2.161 0-1.104.683-1.104 1.816 0 2.499l14.417 8.323c1.381.793 2.914 1.19 4.447 1.19s3.066-.397 4.447-1.19l44.462-25.589c2.869-1.624 4.82-4.754 4.82-8.073V38.407c0-3.319-1.951-6.422-4.82-8.073z"/>
  <path fill="#83CD29" d="M77.727 81.445c-11.727 0-14.309-3.235-15.17-9.066-.1-.628-.633-1.379-1.272-1.379h-5.731c-.709 0-1.279.86-1.279 1.566 0 7.466 4.059 16.512 23.453 16.512 14.039 0 22.088-5.455 22.088-15.109 0-9.572-6.467-12.084-20.082-13.886-13.762-1.819-15.16-2.738-15.16-5.962 0-2.658 1.184-6.203 11.374-6.203 9.105 0 12.461 1.954 13.842 8.091.118.577.645.991 1.24.991h5.754c.354 0 .692-.143.94-.396.24-.272.367-.613.335-.979-.891-10.568-7.912-15.493-22.112-15.493-12.631 0-20.166 5.334-20.166 14.275 0 9.698 7.497 12.378 19.622 13.577 14.505 1.422 15.633 3.542 15.633 6.395 0 4.955-3.978 7.066-13.309 7.066z"/>
</svg>
